# xmcd CD database file
#
# Track frame offsets:
#	150
#	18060
#	34755
#	53925
#	72007
#	90520
#	107110
#	123975
#	145627
#	162537
#	177907
#	196137
#	210047
#	228872
#	246847
#	273227
#
# Disc length: 3893 seconds
#
# Revision: 2
# Processed by: cddbd v1.5.2PL0 Copyright (c) Steve Scherf et al.
# Submitted via: jetAudio 7
#
DISCID=c90f3310
DTITLE=Western Union - Die großen Erfolge
DYEAR=1997
DGENRE=Country
TTITLE0=Lach mal wieder
TTITLE1=Ich möcht' so gerne mal nach Nashville
TTITLE2=Countrymusicfieber
TTITLE3=Berlin
TTITLE4=Wieder Unterwegs
TTITLE5=Bärenstark
TTITLE6=Bi-Ba-Baby
TTITLE7=L.I.E.B.E
TTITLE8=Danke
TTITLE9=Auf der Autobahn
TTITLE10=Gottseidank ist endlich wieder Sommer
TTITLE11=Einfach mal einfach mal nichts tun
TTITLE12=S.O.S
TTITLE13=Der Song vom Glück
TTITLE14=Transit Cowboy
TTITLE15=Dank Dir, Vater
EXTD=YEAR: 1997
EXTT0=
EXTT1=
EXTT2=
EXTT3=
EXTT4=
EXTT5=
EXTT6=
EXTT7=
EXTT8=
EXTT9=
EXTT10=
EXTT11=
EXTT12=
EXTT13=
EXTT14=
EXTT15=
PLAYORDER=
